HIERARCHY
ROOT Hips
{
  OFFSET 39.8185 101.877 19.8946
  CHANNELS 6 Xposition Yposition Zposition Zrotation Xrotation Yrotation
  JOINT RightUpLeg
  {
    OFFSET -8.9458 -8.66707 0.101652
    CHANNELS 3 Zrotation Xrotation Yrotation
    JOINT RightLeg
    {
      OFFSET 0 -44.4227 1.3727
      CHANNELS 3 Zrotation Xrotation Yrotation
      JOINT RightFoot
      {
        OFFSET 0.253549 -42.0924 -1.46059
        CHANNELS 3 Zrotation Xrotation Yrotation
        JOINT RightToes
        {
          OFFSET 0.04 -4.41509 8.4991
          CHANNELS 3 Zrotation Xrotation Yrotation
          End Site
          {
            OFFSET -0.08 -0.137448 9.77979
          }
        }
      }
    }
  }
  JOINT Spine
  {
    OFFSET 0 11.8905 0
    CHANNELS 3 Zrotation Xrotation Yrotation
    JOINT Spine1
    {
      OFFSET 0 25.6574 0.127663
      CHANNELS 3 Zrotation Xrotation Yrotation
      JOINT HEad
      {
        OFFSET 0 8.73416 0.011341
        CHANNELS 3 Zrotation Xrotation Yrotation
        End Site
        {
          OFFSET -0.29 12.7742 2.51395
        }
      }
      JOINT LeftShoulder1
      {
        OFFSET 8.99 -0.362252 -0.22
        CHANNELS 3 Zrotation Xrotation Yrotation
        JOINT LeftArm
        {
          OFFSET 10.2827 -0.00338 0.322123
          CHANNELS 3 Zrotation Xrotation Yrotation
          JOINT LeftForeArm
          {
            OFFSET 32.7669 0.099144 -1.42434
            CHANNELS 3 Zrotation Xrotation Yrotation
            JOINT LeftHand
            {
              OFFSET 27.5643 0.085362 1.02216
              CHANNELS 3 Zrotation Xrotation Yrotation
              End Site
              {
                OFFSET 16.7443 -0.6 1.50291
              }
            }
          }
        }
      }
      JOINT RightShoulder
      {
        OFFSET -8.99 -0.362252 -0.22
        CHANNELS 3 Zrotation Xrotation Yrotation
        JOINT RightArm
        {
          OFFSET -10.2827 -0.00338 0.322123
          CHANNELS 3 Zrotation Xrotation Yrotation
          JOINT RightForeArm
          {
            OFFSET -32.8971 0.099144 -1.42434
            CHANNELS 3 Zrotation Xrotation Yrotation
            JOINT RightHand
            {
              OFFSET -27.4921 0.085362 1.02216
              CHANNELS 3 Zrotation Xrotation Yrotation
              End Site
              {
                OFFSET -16.6312 -0.6 1.50291
              }
            }
          }
        }
      }
    }
  }
  JOINT LeftUpLeg
  {
    OFFSET 8.9458 -8.66707 0.101652
    CHANNELS 3 Zrotation Xrotation Yrotation
    JOINT LeftLeg
    {
      OFFSET 0 -44.4227 1.3727
      CHANNELS 3 Zrotation Xrotation Yrotation
      JOINT LeftFoot
      {
        OFFSET -0.253549 -42.0924 -1.46059
        CHANNELS 3 Zrotation Xrotation Yrotation
        JOINT LeftToes
        {
          OFFSET -0.04 -4.41509 8.4991
          CHANNELS 3 Zrotation Xrotation Yrotation
          End Site
          {
            OFFSET 0.08 -0.047448 9.77979
          }
        }
      }
    }
  }
}
MOTION
Frames:	17
Frame Time:	0.0166667
48.1565 95.5659 23.5454 9.82246 -9.97594 41.6261 -24.2286 -15.4996 28.1076 55.033 37.4044 -83.2151 24.2043 -18.2415 -6.429 0.0462048 0.000533403 0.662642 10.9654 29.5039 8.31459 0.00509099 0.01148 -0.034348 14.4068 18.0187 -20.6939 -3.53113e-031 -1.59028e-015 -1.27222e-014 -145.756 -11.3157 -68.4059 -63.5174 35.0488 -8.40108 -29.892 48.3326 14.6665 10.3751 10.4743 12.7945 -168.32 -26.5315 -178.772 126.638 40.4836 -10.2691 -16.484 31.3705 11.4914 32.1691 12.2085 -22.9279 -60.4565 8.15047 53.0438 41.0891 -20.7216 -3.00794 -1.34023e-009 1.5601e-007 -4.86739e-009 
47.0453 96.4777 23.6459 9.35653 -9.71788 40.7874 -25.2828 -15.1913 29.0885 54.3778 34.2482 -82.6151 23.157 -16.8122 -6.40564 0.0462048 0.000533403 0.662642 10.9219 28.6434 10.0108 0.00509045 0.01148 -0.0316721 19.2117 20.4432 -26.4089 6.36111e-015 1.59028e-015 3.18055e-015 -144.562 -9.72172 -65.9522 -64.3721 37.2646 -10.115 -29.5197 47.6623 13.4987 10.4312 10.9904 14.4181 -165.824 -24.2166 -174.541 127.412 41.162 -11.5065 -16.8254 30.4585 12.5864 32.0607 12.8442 -22.4448 -58.1598 6.9466 53.6145 38.6294 -20.7308 -2.42876 -1.34023e-009 1.5601e-007 -4.86739e-009 
45.8383 97.2773 23.7819 8.92983 -9.47035 39.9441 -26.0404 -15.1327 29.7359 53.9892 31.0629 -82.2188 21.7783 -15.4172 -6.23492 0.0462048 0.000533403 0.662642 10.8602 27.8365 11.2196 0.00508987 0.01148 -0.0287609 23.6148 22.1553 -31.2987 -1.76556e-031 -3.18055e-015 -3.18055e-015 -143.478 -8.55339 -64.1106 -64.9845 39.5737 -12.0534 -26.7893 45.9809 10.8946 10.5437 11.4302 15.543 -164.161 -22.1648 -171.512 128.186 41.7931 -12.7789 -16.9427 30.2024 12.0837 31.948 12.8397 -21.2541 -56.2333 6.49505 53.7177 36.5194 -20.0363 -2.04434 -1.34023e-009 1.5601e-007 -4.86738e-009 
44.5569 97.988 23.9403 8.55014 -9.24003 39.1057 -26.5087 -15.1505 30.0843 53.6847 27.9463 -81.9648 20.1779 -14.0176 -5.89961 0.0462048 0.000533403 0.662642 10.7743 27.0931 11.9936 0.00508915 0.01148 -0.0251627 27.4587 23.3612 -35.3239 1.59028e-015 0 -6.36111e-015 -142.497 -7.82059 -62.773 -65.4526 41.9937 -14.1314 -26.0434 44.8891 9.31338 10.7127 11.8006 16.2298 -163.148 -20.5334 -169.491 128.885 42.4269 -13.9708 -17.1801 29.5196 12.712 31.893 12.498 -19.6496 -54.5244 6.25849 53.063 34.8873 -18.4206 -1.71372 -1.34021e-009 1.5601e-007 -4.86738e-009 
43.2164 98.6282 24.1022 8.21891 -9.02651 38.2865 -26.7433 -15.1168 30.1587 53.2986 25.0227 -81.7712 18.5192 -12.637 -5.39328 0.0462048 0.000533403 0.662642 10.6646 26.4185 12.3798 0.00508839 0.01148 -0.0213682 30.6593 24.2315 -38.49 -1.59028e-015 -3.18055e-015 3.18055e-015 -141.62 -7.49128 -61.8624 -65.7975 44.4772 -16.3224 -24.0533 43.1601 6.99986 10.9308 12.1014 16.5474 -162.636 -19.3867 -168.31 129.449 43.0957 -15.0433 -17.2786 29.2446 12.3688 31.9519 11.9331 -17.8122 -53.0231 6.13691 51.6837 33.6411 -15.9423 -1.37585 -1.34023e-009 1.5601e-007 -4.86739e-009 
41.8255 99.1719 24.2544 7.92829 -8.82204 37.5021 -26.8298 -15.028 29.9732 52.8457 22.393 -81.6202 16.9189 -11.3419 -4.73537 0.0462048 0.000533403 0.662642 10.4889 25.4505 12.1737 0.00508839 0.01148 -0.0213682 31.7976 25.1605 -39.3827 -3.18055e-015 0 -0 -140.737 -7.93999 -61.2968 -66.0274 46.9933 -18.5796 -23.336 41.8078 5.4565 11.1467 12.6124 16.2334 -162.557 -18.9513 -168.388 129.874 43.8165 -15.9903 -17.4145 28.7408 12.6942 31.8043 10.2498 -15.4008 -51.6541 8.14666 51.0348 31.6739 -13.6841 -1.3536 -1.34022e-009 1.5601e-007 -4.86739e-009 
40.4526 99.671 24.4527 7.67365 -8.63162 36.7527 -26.7557 -14.7761 29.5905 52.1754 20.0726 -81.4014 15.469 -10.1357 -3.99135 0.0462048 0.000533403 0.662642 10.3121 24.6414 11.723 0.00508839 0.01148 -0.0213682 30.9376 25.696 -38.3318 -4.77083e-015 -1.59028e-015 6.36111e-015 -140.004 -8.58936 -61.0349 -66.1228 49.4857 -20.9012 -22.001 40.1381 3.57326 11.422 12.9888 15.7272 -162.815 -18.92 -168.971 130.17 44.5776 -16.8179 -17.475 28.5043 12.4461 31.3908 8.26581 -12.962 -50.0928 11.6321 50.7885 28.8678 -12.0142 -1.4505 -1.34022e-009 1.5601e-007 -4.86739e-009 
39.1159 100.15 24.7035 7.45386 -8.46169 36.0402 -26.514 -14.3506 29.0538 51.2433 18.0685 -81.0675 14.2057 -8.99704 -3.23 0.0462048 0.000533403 0.662642 10.1315 23.9892 11.0819 0.00508839 0.01148 -0.0213682 29.8269 26.1146 -36.9623 -1.59028e-015 -1.59028e-015 -0 -139.427 -9.38207 -61.0226 -66.0655 51.9321 -23.2789 -21.477 38.7817 2.26127 11.753 13.2429 15.0769 -163.358 -19.214 -169.951 130.37 45.3514 -17.5156 -17.5597 28.1603 12.6099 31.0575 6.57819 -10.8502 -48.5039 14.8807 49.9551 26.0814 -10.286 -1.33606 -1.34023e-009 1.5601e-007 -4.86739e-009 
37.8351 100.607 25.0026 7.27011 -8.3175 35.3707 -26.1207 -13.7833 28.3991 50.0949 16.3909 -80.6227 13.1594 -7.92515 -2.49247 0.0462048 0.000533403 0.662642 9.94638 23.4866 10.2966 0.00508839 0.01148 -0.0213682 28.5194 26.4 -35.3467 -0 -3.18055e-015 -0 -139.004 -10.2661 -61.2162 -65.8205 54.3052 -25.7279 -20.6515 37.323 0.818554 12.1263 13.3896 14.3199 -164.141 -19.7457 -171.239 130.5 46.1034 -18.0913 -17.6071 28.0034 12.4347 30.8085 5.11644 -9.03836 -46.9127 17.7937 48.672 23.3497 -8.61963 -1.05149 -1.34023e-009 1.5601e-007 -4.86739e-009 
36.7126 100.947 25.3084 7.134 -8.21244 34.7349 -25.7641 -13.1986 27.6686 49.0595 15.0854 -80.1628 12.4057 -6.99503 -1.74978 0.0462048 0.000533403 0.662642 9.74807 23.1361 9.42443 0.00508839 0.01148 -0.0213682 27.0726 26.5464 -33.5594 0 4.77083e-015 -0 -138.733 -11.1979 -61.5683 -65.3686 56.5933 -28.2451 -20.326 36.1157 -0.205371 12.5287 13.4483 13.4824 -165.117 -20.4226 -172.753 130.602 46.7934 -18.5536 -17.6738 27.8118 12.5113 29.8271 3.43883 -7.12123 -46.2442 20.9204 45.7594 25.0813 -6.62196 -0.192809 -1.34023e-009 1.5601e-007 -4.86739e-009 
35.6453 101.294 25.6585 7.0512 -8.14325 34.1507 -25.2731 -12.5417 26.8904 47.883 14.0807 -79.6313 11.8559 -6.13742 -1.0783 0.0462048 0.000533403 0.662642 9.53743 22.9186 8.49056 0.00508839 0.01148 -0.0213682 25.5426 26.5585 -31.6705 -3.18055e-015 0 -0 -138.608 -12.1406 -62.0455 -64.7019 58.7676 -30.8269 -19.8405 34.9008 -1.25375 12.9343 13.4363 12.5888 -166.238 -21.1581 -174.42 130.711 47.3918 -18.9245 -17.7352 27.7634 12.3908 29.0546 1.81196 -5.54874 -45.4307 23.4307 43.0073 26.7331 -5.05484 0.77976 -1.34023e-009 1.5601e-007 -4.86739e-009 
34.6404 101.713 26.0189 7.02494 -8.10663 33.6201 -24.6198 -11.7913 26.1078 46.4277 13.3137 -78.9881 11.5069 -5.27285 -0.524545 0.0462048 0.000533403 0.662642 9.31095 22.82 7.53239 0.00508839 0.01148 -0.0213682 23.9795 26.4481 -29.7415 -4.77083e-015 -3.18055e-015 -0 -138.624 -13.0626 -62.6215 -63.8434 60.7994 -33.4385 -19.648 33.8805 -1.97579 13.322 13.3697 11.6587 -167.46 -21.8827 -176.187 130.856 47.889 -19.225 -17.8292 27.7166 12.423 28.9953 0.220439 -4.46009 -45.2047 25.1689 40.8796 25.3363 -3.91184 1.2821 -1.34023e-009 1.5601e-007 -4.8674e-009 
33.7187 102.087 26.3656 7.0571 -8.08986 33.1529 -23.9997 -11.1037 25.3221 45.1044 12.8251 -78.3712 11.3838 -4.57565 -0.0235124 0.0462048 0.000533403 0.662642 9.06398 22.8214 6.57582 0.00508839 0.01148 -0.0213682 22.4246 26.2314 -27.8216 -1.05934e-030 4.77083e-015 1.27222e-014 -138.771 -13.9366 -63.284 -62.841 62.6492 -36.0247 -19.3634 32.9119 -2.64213 13.6811 13.2596 10.7085 -168.761 -22.5509 -178.022 131.053 48.2976 -19.4836 -17.9411 27.76 12.3299 28.6956 -1.40722 -3.5021 -44.9792 26.4687 39.1635 26.1631 -2.77964 1.90436 -1.34022e-009 1.5601e-007 -4.86739e-009 
32.8753 102.471 26.7003 7.14657 -8.07679 32.7611 -23.3789 -10.4444 24.5595 43.7905 12.5612 -77.7408 11.4788 -4.0074 0.388429 0.0462048 0.000533403 0.662642 8.79357 22.9039 5.63958 0.00508839 0.01148 -0.0213682 20.9084 25.9263 -25.9471 8.82781e-032 1.59028e-015 -3.18055e-015 -139.039 -14.7388 -64.0281 -61.7724 64.2817 -38.4925 -19.2448 32.1318 -3.03473 14.0145 13.1125 9.75556 -170.129 -23.1371 -179.91 131.312 48.6428 -19.7263 -18.0822 27.791 12.3114 28.6091 -2.98065 -2.81859 -45.0504 27.5841 37.8927 26.2296 -1.93683 2.37283 -1.34023e-009 1.5601e-007 -4.86738e-009 
32.1185 102.823 27.0118 7.28886 -8.05125 32.4584 -22.8352 -9.87712 23.823 42.6254 12.5246 -77.1406 11.7924 -3.63621 0.725881 0.0462048 0.000533403 0.662642 8.50037 23.0489 4.73747 0.00508839 0.01148 -0.0213682 19.4528 25.5507 -24.1432 -1.59028e-015 1.59028e-015 -3.18055e-015 -139.419 -15.4482 -64.8554 -60.7276 65.6639 -40.7322 -19.0655 31.482 -3.33553 14.3288 12.9319 8.82168 -171.56 -23.6305 178.163 131.626 48.9555 -19.9764 -18.2347 27.8547 12.1968 28.4812 -4.4831 -2.31488 -45.2402 28.6107 36.9243 26.8783 -1.22069 2.77172 -1.34023e-009 1.5601e-007 -4.86739e-009 
31.5521 102.945 27.317 7.4785 -8.00409 32.2542 -22.6755 -9.58679 23.1091 42.244 12.8404 -76.7627 12.3898 -3.74885 1.11514 0.0462048 0.000533403 0.662642 8.18698 23.243 3.88536 0.00508839 0.01148 -0.0213682 18.0743 25.1236 -22.4277 1.59028e-015 -1.59028e-015 -0 -139.899 -16.046 -65.7648 -59.8009 66.7736 -42.622 -18.9712 31.0569 -3.41353 14.6287 12.7224 7.93022 -173.039 -24.0253 176.209 131.985 49.2602 -20.2464 -18.3918 27.8951 12.1084 27.4378 -6.0175 -1.70821 -46.083 30.7831 35.3191 32.6621 0.351097 3.30219 -1.34023e-009 1.5601e-007 -4.8674e-009 
31.0192 103.277 27.6285 7.70723 -7.93015 32.1594 -22.2409 -9.11882 22.4893 41.17 13.1532 -76.1423 13.1455 -3.7146 1.23514 0.0462048 0.000533403 0.662642 7.85807 23.472 3.09716 0.00508839 0.01148 -0.0213682 16.7859 24.6637 -20.8132 -1.59028e-015 -1.59028e-015 -9.54166e-015 -140.468 -16.5162 -66.754 -59.0799 67.5938 -44.0478 -18.8389 30.8247 -3.37076 14.9111 12.4905 7.09945 -174.542 -24.3176 174.245 132.38 49.5688 -20.5437 -18.5428 27.942 11.9486 28.063 -7.42646 -2.76669 -48.0875 31.8138 35.8202 29.845 0.122207 3.36595 -1.34023e-009 1.5601e-007 -4.86738e-009 
